<svg width="24" height="27" viewBox="0 0 24 27" fill="none" xmlns="http://www.w3.org/2000/svg">
<path d="M18.8305 26.9179H5.16848C5.14778 26.9027 5.12488 26.8906 5.10053 26.8821C3.91858 26.6378 3.19012 25.8676 3.07793 24.6897C2.9373 23.1912 2.82195 21.6896 2.69553 20.188C2.54278 18.383 2.38951 16.5774 2.23571 14.7714C2.09771 13.1552 1.96181 11.54 1.82803 9.92582C1.77114 9.25672 1.71741 8.58762 1.66211 7.90295H22.3211C22.3284 7.93095 22.3327 7.95965 22.3337 7.98854C22.141 10.3008 21.9477 12.6126 21.7538 14.9239C21.4884 18.0827 21.225 21.2409 20.9637 24.3987C20.9069 25.0896 20.7362 25.7213 20.2147 26.2255C19.8275 26.5782 19.3482 26.818 18.8305 26.9179ZM8.79968 23.0138C8.74912 22.1829 8.71119 21.5449 8.67169 20.9069C8.5358 18.7409 8.39885 16.5748 8.26085 14.4088C8.17447 13.0115 8.08545 11.6141 7.9938 10.2168C7.99088 10.0801 7.95022 9.94673 7.87617 9.83105C7.80212 9.71536 7.69748 9.62171 7.57348 9.56015C7.44963 9.49272 7.30965 9.45928 7.16819 9.46334C7.02672 9.4674 6.88896 9.50881 6.7693 9.58323C6.64964 9.65765 6.55248 9.76235 6.48797 9.8864C6.42346 10.0104 6.39397 10.1493 6.40258 10.2884C6.42155 10.9699 6.48001 11.6515 6.52268 12.3315C6.65646 14.4633 6.79183 16.5945 6.92878 18.7253C7.01885 20.1491 7.10575 21.5729 7.19898 22.9951C7.20538 23.1984 7.29125 23.3914 7.43869 23.5338C7.58612 23.6763 7.78372 23.7571 7.99025 23.7596C8.19678 23.762 8.39627 23.6857 8.54709 23.5468C8.69791 23.4078 8.7884 23.2169 8.79968 23.0138ZM17.6012 10.332C17.6129 10.2262 17.6026 10.1191 17.5706 10.0174C17.5387 9.91571 17.4859 9.82155 17.4156 9.74075C17.3452 9.65995 17.2588 9.59422 17.1616 9.54763C17.0644 9.50104 16.9586 9.47459 16.8506 9.4699C16.6348 9.46147 16.4245 9.53767 16.2657 9.68178C16.1069 9.82589 16.0127 10.0261 16.0036 10.2386C15.9104 11.6811 15.8235 13.122 15.7318 14.5644C15.6149 16.3995 15.4974 18.2351 15.3795 20.0713C15.3194 21.0236 15.253 21.9759 15.2072 22.9282C15.1997 23.0336 15.214 23.1393 15.2494 23.2391C15.2847 23.3388 15.3403 23.4304 15.4127 23.5083C15.4852 23.5862 15.573 23.6487 15.6707 23.6921C15.7685 23.7355 15.8743 23.7588 15.9815 23.7607C16.1935 23.7657 16.3988 23.6878 16.5525 23.544C16.7062 23.4002 16.7958 23.2023 16.8016 22.9936C16.8237 22.7057 16.8379 22.4178 16.8569 22.1284C16.9696 20.3203 17.0829 18.5116 17.1966 16.7024C17.3294 14.6033 17.4621 12.5058 17.6012 10.332ZM12.7975 16.6137V10.4658C12.7975 9.84335 12.502 9.46834 11.9963 9.4699C11.4907 9.47146 11.1952 9.83557 11.1952 10.4658V22.7586C11.1905 22.8462 11.1905 22.934 11.1952 23.0216C11.2035 23.1759 11.2592 23.3241 11.3548 23.4466C11.4505 23.5691 11.5816 23.6602 11.7309 23.7078C12.276 23.9007 12.7896 23.5071 12.7912 22.8909C12.7954 20.8037 12.7975 18.7113 12.7975 16.6137Z" fill="white"/>
<path d="M6.42139 3.1623C6.40153 2.81921 6.40153 2.47528 6.42139 2.13219C6.5794 0.887349 7.51802 0.0268519 8.79162 0.0144035C10.9364 -0.00530654 13.0739 -0.00478786 15.2039 0.0159595C16.5755 0.029964 17.5741 1.04295 17.6026 2.39672C17.6026 2.63946 17.6026 2.88376 17.6026 3.1623H17.9028C19.3787 3.1623 20.8546 3.1623 22.3273 3.1623C23.1284 3.1623 23.7494 3.61822 23.9406 4.32467C23.9992 4.52915 24.0147 4.74329 23.986 4.95388C23.9574 5.16447 23.8852 5.36705 23.774 5.54914C23.6629 5.73122 23.515 5.88896 23.3395 6.01263C23.1641 6.13629 22.9648 6.22326 22.7539 6.26818C22.5885 6.30037 22.42 6.3155 22.2514 6.31331H1.7536C0.933497 6.31331 0.331457 5.93207 0.0975932 5.27697C-0.278484 4.20952 0.473671 3.17319 1.64457 3.16385C3.12044 3.15296 4.59788 3.16385 6.06901 3.16385L6.42139 3.1623ZM8.00154 3.14829H16.0066C16.0066 2.89155 16.0066 2.6488 16.0066 2.40606C16.011 2.29616 15.992 2.18658 15.9508 2.08432C15.9097 1.98206 15.8474 1.88938 15.7678 1.8122C15.6883 1.73502 15.5932 1.67504 15.4888 1.63609C15.3843 1.59714 15.2728 1.58009 15.1612 1.58602C14.8689 1.58602 14.575 1.58602 14.2827 1.58602C12.4918 1.58602 10.6968 1.58602 8.89749 1.58602C8.32548 1.58602 8.00945 1.89723 8.00312 2.46363C7.9968 2.68148 7.99838 2.90088 7.99838 3.14829H8.00154Z" fill="white"/>
</svg>
