<svg width="61" height="37" viewBox="0 0 61 37" fill="none" xmlns="http://www.w3.org/2000/svg">
<path d="M61 29.6201C60.5234 30.655 59.7085 31.0259 58.5993 30.947C57.7904 30.8895 56.9731 30.9362 56.1522 30.9362C55.1098 34.3879 52.8961 36.4638 49.2421 36.398C45.7359 36.3346 43.6081 34.2815 42.624 30.9529H24.5756C23.5593 34.3449 21.3814 36.4171 17.7846 36.3992C14.2247 36.3824 12.0552 34.3269 11.0521 30.9362C9.93454 30.9362 8.82416 30.9362 7.71617 30.9362C6.44614 30.9362 5.73012 30.2099 5.72654 28.9297C5.72654 27.2368 5.72654 25.5426 5.72654 23.7587H3.58204C3.04591 23.7587 2.50978 23.7587 1.97366 23.7587C0.818007 23.7491 0.0114343 23.0157 0.00666878 21.97C0.00190321 20.9243 0.810858 20.1753 1.96174 20.1753C7.20387 20.1753 12.446 20.1753 17.6881 20.1753C18.4959 20.1753 19.1249 19.8858 19.4859 19.1428C20.0685 17.9464 19.2131 16.6063 17.8418 16.5884C16.1739 16.5681 14.5059 16.5884 12.838 16.5884C9.20422 16.582 5.57047 16.5788 1.93672 16.5788C0.477269 16.5788 -0.416276 15.2424 0.194909 14.0077C0.552326 13.2898 1.15517 12.9871 1.94149 12.9883C5.43624 12.9931 8.93099 12.9931 12.4257 12.9883C13.6386 12.9883 14.4654 12.1209 14.3558 10.995C14.2629 10.0378 13.6815 9.53414 12.5985 9.52696C10.5934 9.51141 8.58708 9.52696 6.58196 9.52696C5.6086 9.52696 4.63642 9.53534 3.66305 9.52696C2.57293 9.5138 1.77589 8.72534 1.79376 7.70119C1.81163 6.69378 2.60152 5.94839 3.66901 5.93044C4.32308 5.92207 4.97954 5.93044 5.68604 5.93044C5.70033 5.74021 5.72178 5.57151 5.72178 5.39922C5.72178 4.28174 5.71344 3.16546 5.72178 2.04917C5.73965 0.959208 6.48069 0.217411 7.5601 0.1875C7.69949 0.1875 7.83888 0.1875 7.97708 0.1875H39.9124V0.85751C39.9124 4.1278 39.9124 7.39809 39.9124 10.6684C39.9124 12.061 40.6057 12.7502 42.0056 12.7502C46.3935 12.7502 50.7826 12.6975 55.1693 12.7741C57.3138 12.8112 59.1641 13.6523 60.309 15.5989C60.6319 16.1505 60.7736 16.8085 60.9988 17.4175L61 29.6201ZM14.5357 29.5351C14.5311 30.184 14.7178 30.8198 15.0721 31.3624C15.4265 31.905 15.9328 32.3302 16.5273 32.5845C17.1218 32.8388 17.7779 32.9108 18.413 32.7915C19.0482 32.6721 19.634 32.3668 20.0967 31.9139C20.5594 31.461 20.8784 30.8807 21.0135 30.2461C21.1486 29.6116 21.0938 28.9511 20.8559 28.3477C20.618 27.7444 20.2078 27.2252 19.6767 26.8555C19.1457 26.4858 18.5176 26.2821 17.8716 26.27C17.4387 26.2636 17.0089 26.343 16.6067 26.5038C16.2045 26.6646 15.8378 26.9037 15.5279 27.2072C15.2179 27.5107 14.9707 27.8727 14.8004 28.2724C14.6302 28.6721 14.5402 29.1016 14.5357 29.5363V29.5351ZM46.1076 29.5483C46.1055 30.1972 46.2947 30.8322 46.6512 31.3734C47.0077 31.9146 47.5157 32.3378 48.1112 32.5898C48.7067 32.8417 49.3631 32.9111 49.9978 32.7892C50.6324 32.6674 51.217 32.3597 51.678 31.9049C52.1389 31.4502 52.4556 30.8686 52.5882 30.2335C52.7208 29.5984 52.6633 28.9381 52.423 28.3357C52.1827 27.7333 51.7704 27.2158 51.2379 26.8482C50.7054 26.4807 50.0765 26.2795 49.4304 26.27C48.9975 26.2653 48.568 26.3465 48.1665 26.5089C47.7649 26.6713 47.3993 26.9118 47.0905 27.2165C46.7818 27.5212 46.536 27.8842 46.3674 28.2845C46.1987 28.6849 46.1104 29.1148 46.1076 29.5495V29.5483Z" fill="#416F6F"/>
<path d="M53.2929 9.14505H43.5354V0.602417C48.4118 1.52607 51.0281 5.05918 53.2929 9.14505Z" fill="#416F6F"/>
</svg>
