<svg width="90" height="53" viewBox="0 0 90 53" fill="none"
  xmlns="http://www.w3.org/2000/svg">
  <path d="M89.2738 43.0747C88.5763 44.5894 87.3837 45.1322 85.7604 45.0166C84.5765 44.9325 83.3804 45.0008 82.179 45.0008C80.6534 50.0525 77.4137 53.0905 72.0661 52.9942C66.9347 52.9014 63.8206 49.8967 62.3804 45.0254H35.9664C34.4791 49.9895 31.2918 53.0222 26.0279 52.9959C20.818 52.9714 17.6429 49.9632 16.1747 45.0008C14.5392 45.0008 12.9142 45.0008 11.2926 45.0008C9.43396 45.0008 8.38605 43.938 8.38082 42.0644C8.38082 39.5867 8.38082 37.1073 8.38082 34.4966H5.24233C4.4577 34.4966 3.67308 34.4966 2.88846 34.4966C1.19716 34.4825 0.0167342 33.4092 0.00975978 31.8788C0.00278535 30.3484 1.18669 29.2523 2.87102 29.2523C10.5429 29.2523 18.2148 29.2523 25.8866 29.2523C27.0688 29.2523 27.9894 28.8286 28.5178 27.7412C29.3704 25.9902 28.1185 24.029 26.1116 24.0028C23.6705 23.973 21.2295 24.0028 18.7884 24.0028C13.4704 23.9934 8.15241 23.9888 2.8344 23.9888C0.698485 23.9888 -0.609221 22.0329 0.28525 20.2259C0.808332 19.1753 1.6906 18.7323 2.84138 18.734C7.95596 18.741 13.0705 18.741 18.1851 18.734C19.9601 18.734 21.1702 17.4645 21.0098 15.8168C20.8738 14.416 20.0229 13.6789 18.438 13.6683C15.5035 13.6456 12.5672 13.6683 9.63273 13.6683C8.2082 13.6683 6.78542 13.6806 5.36089 13.6683C3.76549 13.6491 2.59902 12.4952 2.62517 10.9963C2.65133 9.52197 3.80734 8.43109 5.36961 8.40483C6.32685 8.39257 7.28758 8.40483 8.32154 8.40483C8.34246 8.12642 8.37385 7.87952 8.37385 7.62738C8.37385 5.99194 8.36164 4.35825 8.37385 2.72456C8.4 1.1294 9.48453 0.0437751 11.0642 0C11.2682 0 11.4722 0 11.6745 0H58.4119V0.980563C58.4119 5.76664 58.4119 10.5527 58.4119 15.3388C58.4119 17.377 59.4267 18.3856 61.4754 18.3856C67.8971 18.3856 74.3206 18.3085 80.7406 18.4206C83.879 18.4749 86.5869 19.7058 88.2625 22.5547C88.735 23.3619 88.9425 24.325 89.272 25.2162L89.2738 43.0747ZM21.2731 42.9504C21.2663 43.9001 21.5395 44.8305 22.0581 45.6246C22.5768 46.4187 23.3178 47.041 24.1878 47.4131C25.0578 47.7853 26.018 47.8907 26.9475 47.716C27.8771 47.5414 28.7344 47.0945 29.4116 46.4317C30.0888 45.7688 30.5557 44.9196 30.7534 43.991C30.9511 43.0623 30.8708 42.0956 30.5227 41.2126C30.1746 40.3297 29.5742 39.5698 28.797 39.0287C28.0198 38.4877 27.1007 38.1896 26.1552 38.1719C25.5217 38.1624 24.8925 38.2787 24.3039 38.5141C23.7153 38.7494 23.1788 39.0992 22.7251 39.5434C22.2715 39.9876 21.9097 40.5173 21.6605 41.1023C21.4113 41.6873 21.2796 42.3159 21.2731 42.9522V42.9504ZM67.4787 42.9697C67.4757 43.9194 67.7525 44.8487 68.2743 45.6408C68.796 46.4328 69.5395 47.0522 70.411 47.4209C71.2825 47.7896 72.2431 47.8911 73.1719 47.7128C74.1008 47.5345 74.9563 47.0842 75.6309 46.4186C76.3055 45.7531 76.769 44.902 76.963 43.9725C77.1571 43.043 77.073 42.0767 76.7213 41.1951C76.3697 40.3135 75.7662 39.556 74.9869 39.0181C74.2075 38.4802 73.2872 38.1857 72.3416 38.1719C71.7081 38.165 71.0795 38.2838 70.4918 38.5215C69.9042 38.7592 69.3691 39.1111 68.9172 39.5571C68.4654 40.003 68.1057 40.5342 67.8588 41.1202C67.612 41.7061 67.4828 42.3352 67.4787 42.9714V42.9697Z" fill="#416F6F"/>
  <path d="M77.9943 13.1097H63.7142V0.60752C70.8508 1.9593 74.6798 7.13001 77.9943 13.1097Z" fill="#416F6F"/>
</svg>
