<svg width="34" height="34" viewBox="0 0 34 34" fill="none"
  xmlns="http://www.w3.org/2000/svg">
  <path d="M15.8708 33.9996H15.274C14.8891 33.9112 14.506 33.8154 14.1192 33.7344C9.8524 32.8749 5.58372 32.0197 1.3132 31.1688C0.392303 30.9846 0 30.4891 0 29.5443V1.65762C0 0.574641 0.574641 0 1.65762 0H23.8679C24.9472 0 25.4997 0.55254 25.4997 1.63552V9.7026C25.5026 9.82549 25.4989 9.94845 25.4887 10.071C25.4546 10.3977 25.3069 10.7021 25.0712 10.931C24.8356 11.16 24.527 11.2988 24.1994 11.3234C23.8828 11.3527 23.5657 11.2717 23.3019 11.0942C23.0381 10.9167 22.8438 10.6534 22.7517 10.3491C22.6933 10.1242 22.6661 9.89247 22.6707 9.66024C22.6707 7.5262 22.6707 5.39095 22.6707 3.25446V2.86031H11.3584C11.4324 2.92598 11.5217 2.97218 11.6181 2.99477L15.7105 4.23614C16.6978 4.53451 16.9998 4.93786 16.9998 5.9619V28.3103H22.6541V27.8885C22.6541 25.741 22.6541 23.5922 22.6541 21.4422C22.6541 20.6779 22.9709 20.153 23.5621 19.9264C24.518 19.5581 25.4868 20.2469 25.4905 21.3188C25.4905 24.041 25.4905 26.7632 25.4905 29.4854C25.4905 30.6199 24.9601 31.1559 23.8329 31.1559H16.9998C16.9998 31.539 16.9795 31.8723 16.9998 32.202C17.0661 33.0898 16.7254 33.7049 15.8708 33.9996Z" fill="white" fill-opacity="0.8"/>
  <path d="M33.9995 15.871C33.7698 16.2406 33.5131 16.5927 33.2314 16.9245C31.9735 18.2137 30.6916 19.4846 29.4115 20.7554C28.7117 21.4498 27.7318 21.4019 27.1903 20.6596C26.7722 20.085 26.8385 19.3464 27.3745 18.7902C27.8681 18.2819 28.3746 17.7864 28.8756 17.2855C28.9511 17.2099 29.0211 17.1308 29.1426 17H28.7319C26.2762 17 23.8205 17 21.3647 17C20.4309 17 19.8066 16.3738 19.8471 15.4989C19.8608 15.1915 19.9771 14.8975 20.1774 14.6638C20.3777 14.4301 20.6504 14.2702 20.9522 14.2097C21.1479 14.1753 21.3465 14.1593 21.5452 14.1618C23.9334 14.1618 26.3228 14.1618 28.7135 14.1618H29.139C28.999 14.0107 28.9143 13.9168 28.8258 13.8266C28.2991 13.2906 27.7466 12.7767 27.2493 12.2131C27.017 11.945 26.8979 11.5971 26.9171 11.2429C26.9363 10.8886 27.0924 10.5557 27.3524 10.3143C27.6007 10.0727 27.9296 9.93161 28.2758 9.91801C28.6219 9.90441 28.9608 10.0193 29.2274 10.2406C29.3372 10.3329 29.4423 10.4306 29.5423 10.5334C30.7579 11.7509 31.9772 12.9536 33.1743 14.182C33.4728 14.5278 33.7484 14.8927 33.9995 15.2742V15.871Z" fill="white" fill-opacity="0.8"/>
</svg>
