<svg width="37" height="64" viewBox="0 0 37 64" fill="none"
  xmlns="http://www.w3.org/2000/svg">
  <path d="M5.73325 6.61571C2.99057 9.55186 1.27266 13.829 1.33937 17.8521C1.47866 26.2592 5.25651 29.4417 11.298 41.0124C13.4742 46.104 15.7456 51.4916 17.9058 60.4145C18.206 61.7308 18.4988 62.9534 18.6343 63.0593C18.7696 63.1653 19.0625 61.9384 19.3627 60.6221C21.523 51.6992 23.7943 46.3159 25.9706 41.2243C32.012 29.6535 35.7898 26.471 35.9292 18.0639C35.9959 14.0408 34.2737 9.75939 31.531 6.82324C28.398 3.46918 23.6724 0.986932 18.6343 0.883132C13.5962 0.779267 8.8663 3.26165 5.73325 6.61571Z" fill="#00D060" stroke="#3D3229" stroke-width="1.17067"/>
  <path d="M18.6322 24.8025C22.2868 24.8025 25.2494 21.8308 25.2494 18.165C25.2494 14.4992 22.2868 11.5275 18.6322 11.5275C14.9777 11.5275 12.0151 14.4992 12.0151 18.165C12.0151 21.8308 14.9777 24.8025 18.6322 24.8025Z" fill="#3D3229"/>
</svg>
