<svg width="63" height="58" viewBox="0 0 63 58" fill="none"
  xmlns="http://www.w3.org/2000/svg">
  <path d="M54.8538 58H5.15342C5.06047 57.9641 4.96414 57.9362 4.86563 57.9166C3.44144 57.7272 2.15053 57.0397 1.25991 55.9962C0.54044 55.1898 0.215841 54.2381 0 53.2416V20.4888C0.0217514 20.4579 0.0585616 20.4286 0.0635812 20.3946C0.448414 17.7125 2.9582 15.6948 6.14729 15.8061C7.39382 15.8493 8.64369 15.8432 9.89022 15.8061C10.3706 15.7934 10.841 15.677 11.2639 15.4662C20.2991 10.6316 29.3232 5.78456 38.3361 0.925201C39.5458 0.273236 40.8141 -0.133084 42.243 0.0399494C44.2876 0.285595 45.7182 1.32689 46.7204 2.94908C49.262 7.06171 51.8186 11.1651 54.3485 15.2839C54.4478 15.4744 54.5984 15.6383 54.7859 15.7597C54.9734 15.8812 55.1915 15.9562 55.4193 15.9776C57.6949 16.3005 59.7362 18.3151 59.8851 20.4332C59.9821 21.8236 59.9671 23.2234 59.9805 24.62C59.9905 25.8745 59.4501 26.3642 58.0914 26.3658C55.0429 26.3658 51.996 26.3658 48.9491 26.3735C48.2341 26.3758 47.52 26.4191 46.8108 26.5033C40.4727 27.2618 35.9351 33.3288 37.384 39.0976C38.6389 44.1048 43.1264 47.4264 48.7015 47.4558C51.8722 47.4712 55.0429 47.4558 58.2119 47.4558C59.4233 47.4558 59.9721 47.9579 59.9805 49.078C59.9905 50.2289 59.9989 51.3815 59.9805 52.5325C59.952 54.3339 59.2309 55.8294 57.6581 56.9448C56.8231 57.5365 55.8527 57.7976 54.8538 58ZM44.0048 3.95792C43.1314 2.59528 41.5419 2.25849 39.9892 3.08967C32.2925 7.22084 24.5959 11.3582 16.8992 15.5017C16.7407 15.6006 16.5877 15.7069 16.4407 15.82C18.1491 15.82 19.7001 15.8416 21.2495 15.8061C21.6896 15.7971 22.121 15.6912 22.5077 15.4971C27.3734 12.9067 32.2295 10.302 37.0762 7.68278C39.3768 6.44992 41.6624 5.21551 44.0048 3.95792ZM51.3819 15.7875L48.2865 10.7912L39.166 15.6964L39.2028 15.7875H51.3819Z" fill="#416F6F"/>
  <path d="M53.3381 28.9934C54.9728 28.9934 56.6075 28.9934 58.2422 28.9934C61.008 29.0027 62.8201 30.6635 62.8284 33.2064C62.8351 35.6588 62.8351 38.1116 62.8284 40.565C62.8284 43.0369 61.2021 44.7364 58.53 44.7935C54.9979 44.8739 51.4558 44.897 47.927 44.7503C43.6152 44.5726 40.14 41.2093 40.0044 37.3191C39.8606 33.1307 42.9409 29.5851 47.3414 29.1309C49.3157 28.9254 51.337 29.0969 53.3364 29.0969L53.3381 28.9934ZM48.5394 34.2848C47.785 34.2875 47.0627 34.5667 46.5313 35.0612C45.9999 35.5556 45.703 36.2247 45.7058 36.9213C45.7087 37.6178 46.0112 38.2848 46.5466 38.7755C47.0821 39.2661 47.8068 39.5403 48.5611 39.5376C48.9347 39.5363 49.3043 39.4671 49.6488 39.3339C49.9934 39.2007 50.3061 39.0061 50.5693 38.7613C50.8324 38.5165 51.0407 38.2262 51.1823 37.907C51.3239 37.5879 51.3961 37.2461 51.3947 36.9012C51.3933 36.5563 51.3183 36.215 51.174 35.8969C51.0297 35.5787 50.819 35.2899 50.5539 35.047C50.2887 34.804 49.9744 34.6117 49.6287 34.4809C49.2831 34.3501 48.9129 34.2835 48.5394 34.2848V34.2848Z" fill="#416F6F"/>
</svg>
