<svg width="49" height="46" viewBox="0 0 49 46" fill="none" xmlns="http://www.w3.org/2000/svg">
<path d="M42.7772 45.9997H4.01884C3.94636 45.9717 3.87123 45.9499 3.79441 45.9347C2.68377 45.787 1.67707 45.2509 0.982528 44.4371C0.421456 43.8082 0.168322 43.066 0 42.2889V16.747C0.0169626 16.7229 0.0456686 16.7 0.0495831 16.6735C0.349691 14.582 2.30692 13.0085 4.7939 13.0953C5.76599 13.129 6.74069 13.1242 7.71278 13.0953C8.08738 13.0854 8.45427 12.9946 8.78404 12.8302C15.8301 9.05995 22.8674 5.28007 29.896 1.49055C30.8394 0.982123 31.8284 0.665259 32.9428 0.800197C34.5372 0.991761 35.6529 1.8038 36.4344 3.06885C38.4165 6.27605 40.4102 9.47601 42.3831 12.688C42.4606 12.8366 42.578 12.9644 42.7242 13.0591C42.8704 13.1538 43.0405 13.2123 43.2182 13.229C44.9927 13.4808 46.5846 15.0519 46.7008 16.7037C46.7764 17.788 46.7647 18.8795 46.7751 19.9687C46.783 20.947 46.3615 21.3289 45.302 21.3301C42.9246 21.3301 40.5485 21.3301 38.1725 21.3361C37.6149 21.3379 37.0579 21.3717 36.5049 21.4373C31.5623 22.0289 28.0236 26.7602 29.1536 31.2589C30.1322 35.1637 33.6317 37.754 37.9793 37.7769C40.452 37.789 42.9246 37.7769 45.3959 37.7769C46.3406 37.7769 46.7686 38.1685 46.7751 39.042C46.783 39.9396 46.7895 40.8383 46.7751 41.7359C46.7529 43.1407 46.1906 44.307 44.964 45.1769C44.3129 45.6383 43.5561 45.8419 42.7772 45.9997ZM34.3167 3.85559C33.6356 2.79295 32.396 2.5303 31.1852 3.17849C25.183 6.40014 19.1808 9.62661 13.1787 12.8579C13.055 12.935 12.9357 13.0179 12.8211 13.1061C14.1534 13.1061 15.3629 13.123 16.5712 13.0953C16.9144 13.0883 17.2508 13.0057 17.5524 12.8543C21.3468 10.8342 25.1338 8.80293 28.9135 6.76038C30.7076 5.79894 32.49 4.8363 34.3167 3.85559ZM40.0697 13.0808L37.6558 9.18445L30.5432 13.0097L30.5719 13.0808H40.0697Z" fill="#416F6F"/>
<path d="M41.5957 23.3795C42.8705 23.3795 44.1453 23.3795 45.4201 23.3795C47.577 23.3867 48.9901 24.6819 48.9967 26.665C49.0019 28.5775 49.0019 30.4903 48.9967 32.4035C48.9967 34.3312 47.7284 35.6565 45.6446 35.7011C42.8901 35.7637 40.1278 35.7818 37.3759 35.6673C34.0134 35.5288 31.3033 32.9059 31.1976 29.8722C31.0854 26.606 33.4876 23.841 36.9193 23.4867C38.4589 23.3265 40.0352 23.4602 41.5944 23.4602L41.5957 23.3795ZM37.8535 27.506C37.2652 27.5081 36.7019 27.7258 36.2875 28.1114C35.8731 28.497 35.6415 29.0188 35.6438 29.562C35.646 30.1052 35.8819 30.6253 36.2995 31.008C36.7171 31.3906 37.2822 31.6044 37.8705 31.6023C38.1618 31.6013 38.45 31.5473 38.7187 31.4434C38.9874 31.3395 39.2313 31.1878 39.4365 30.9969C39.6417 30.806 39.8041 30.5796 39.9146 30.3307C40.025 30.0818 40.0813 29.8153 40.0802 29.5463C40.0791 29.2774 40.0206 29.0112 39.9081 28.7631C39.7956 28.515 39.6313 28.2898 39.4245 28.1003C39.2177 27.9109 38.9726 27.7609 38.703 27.6589C38.4335 27.5569 38.1448 27.505 37.8535 27.506V27.506Z" fill="#416F6F"/>
</svg>
