<svg width="30" height="30" viewBox="0 0 30 30" fill="none" xmlns="http://www.w3.org/2000/svg">
<path d="M0.200012 12.9611C0.200012 12.4485 0.61553 12.033 1.1281 12.033H28.7386C29.2512 12.033 29.6667 12.4485 29.6667 12.9611V16.9054C29.6667 17.418 29.2512 17.8335 28.7386 17.8335H1.1281C0.615529 17.8335 0.200012 17.418 0.200012 16.9054V12.9611Z" fill="#009C90"/>
<path d="M12.9612 29.6666C12.4486 29.6666 12.0331 29.2511 12.0331 28.7385V1.12803C12.0331 0.615468 12.4486 0.199951 12.9612 0.199951H16.9055C17.4181 0.199951 17.8336 0.615469 17.8336 1.12804V28.7385C17.8336 29.2511 17.4181 29.6666 16.9055 29.6666H12.9612Z" fill="#009C90"/>
</svg>
