<svg width="35" height="36" viewBox="0 0 35 36" fill="none"
  xmlns="http://www.w3.org/2000/svg">
  <g filter="url(#filter0_d_267_429)">
    <circle cx="17.5" cy="14.5" r="12.7703" stroke="#e0e0e0" stroke-width="1.45946"/>
    <path d="M13.8546 9.06603C13.553 9.14144 13.2664 9.08865 12.995 8.90768C12.7386 8.71163 12.6104 8.45525 12.6104 8.13855V7.95757C12.6104 7.58055 12.731 7.24122 12.9723 6.9396C13.2136 6.63798 13.5153 6.45701 13.8772 6.39668C15.2797 6.12522 16.6898 5.98949 18.1075 5.98949C19.9323 5.98949 21.3423 6.35144 22.3377 7.07533C23.3481 7.78414 23.8533 8.72671 23.8533 9.90303C23.8533 10.446 23.7779 10.9361 23.6271 11.3734C23.4914 11.7957 23.2652 12.1803 22.9485 12.5271C22.6469 12.874 22.3679 13.1455 22.1115 13.3415C21.8702 13.5376 21.5309 13.7864 21.0935 14.088C20.6863 14.3746 20.3696 14.6008 20.1434 14.7667C19.9172 14.9326 19.6683 15.1663 19.3969 15.468C19.1405 15.7696 18.9445 16.0863 18.8087 16.4181C18.4769 17.2626 17.9717 17.6849 17.2931 17.6849H16.8406C16.4787 17.6849 16.1771 17.5567 15.9358 17.3003C15.6945 17.0288 15.6115 16.7272 15.6869 16.3954C15.8227 15.8525 16.064 15.3398 16.4108 14.8572C16.7728 14.3595 17.0819 14.0051 17.3383 13.794C17.6098 13.5828 18.017 13.2737 18.5599 12.8665C19.0274 12.5347 19.3667 12.2783 19.5779 12.0973C19.8041 11.9013 20.0152 11.6449 20.2113 11.3282C20.4224 10.9964 20.528 10.6495 20.528 10.2876C20.528 9.12636 19.5703 8.54574 17.655 8.54574C16.539 8.54574 15.2722 8.71917 13.8546 9.06603ZM16.6823 19.5625H17.4288C17.7757 19.5625 18.0773 19.6907 18.3337 19.947C18.59 20.2034 18.7182 20.505 18.7182 20.8519V21.4401C18.7182 21.7869 18.59 22.0885 18.3337 22.3449C18.0773 22.6013 17.7757 22.7295 17.4288 22.7295H16.6823C16.3354 22.7295 16.0338 22.6013 15.7774 22.3449C15.521 22.0885 15.3929 21.7869 15.3929 21.4401V20.8519C15.3929 20.505 15.521 20.2034 15.7774 19.947C16.0338 19.6907 16.3354 19.5625 16.6823 19.5625Z" fill="#9B9B9B"/>
  </g>
  <defs>
    <filter id="filter0_d_267_429" x="0" y="1" width="35" height="35" filterUnits="userSpaceOnUse" color-interpolation-filters="sRGB">
      <feFlood flood-opacity="0" result="BackgroundImageFix"/>
      <feColorMatrix in="SourceAlpha" type="matrix" values="0 0 0 0 0 0 0 0 0 0 0 0 0 0 0 0 0 0 127 0" result="hardAlpha"/>
      <feOffset dy="4"/>
      <feGaussianBlur stdDeviation="2"/>
      <feComposite in2="hardAlpha" operator="out"/>
      <feColorMatrix type="matrix" values="0 0 0 0 0 0 0 0 0 0 0 0 0 0 0 0 0 0 0.25 0"/>
      <feBlend mode="normal" in2="BackgroundImageFix" result="effect1_dropShadow_267_429"/>
      <feBlend mode="normal" in="SourceGraphic" in2="effect1_dropShadow_267_429" result="shape"/>
    </filter>
  </defs>
</svg>
