<svg width="62" height="34" viewBox="0 0 62 34" fill="none" xmlns="http://www.w3.org/2000/svg">
<rect opacity="0.75" y="0.5" width="61.4713" height="33.0061" rx="10" fill="#3A4961"/>
<path fill-rule="evenodd" clip-rule="evenodd" d="M28.2014 20.1872C30.8706 24.4428 36.5259 25.7547 40.833 23.1175C45.1401 20.4803 46.4679 14.8926 43.7988 10.6371C41.1296 6.38156 35.4743 5.06963 31.1672 7.70683C26.8601 10.344 25.5323 15.9317 28.2014 20.1872ZM30.1511 18.9934C32.1529 22.1851 36.3944 23.169 39.6248 21.1911C42.8551 19.2132 43.851 15.0225 41.8491 11.8308C39.8472 8.63917 35.6057 7.65522 32.3754 9.63312C29.1451 11.611 28.1492 15.8018 30.1511 18.9934Z" fill="white"/>
<path fill-rule="evenodd" clip-rule="evenodd" d="M28.2014 20.1872C30.8706 24.4428 36.5259 25.7547 40.833 23.1175C45.1401 20.4803 46.4679 14.8926 43.7988 10.6371C41.1296 6.38156 35.4743 5.06963 31.1672 7.70683C26.8601 10.344 25.5323 15.9317 28.2014 20.1872ZM30.1511 18.9934C32.1529 22.1851 36.3944 23.169 39.6248 21.1911C42.8551 19.2132 43.851 15.0225 41.8491 11.8308C39.8472 8.63917 35.6057 7.65522 32.3754 9.63312C29.1451 11.611 28.1492 15.8018 30.1511 18.9934Z" fill="white"/>
<path fill-rule="evenodd" clip-rule="evenodd" d="M28.2014 20.1872C30.8706 24.4428 36.5259 25.7547 40.833 23.1175C45.1401 20.4803 46.4679 14.8926 43.7988 10.6371C41.1296 6.38156 35.4743 5.06963 31.1672 7.70683C26.8601 10.344 25.5323 15.9317 28.2014 20.1872ZM30.1511 18.9934C32.1529 22.1851 36.3944 23.169 39.6248 21.1911C42.8551 19.2132 43.851 15.0225 41.8491 11.8308C39.8472 8.63917 35.6057 7.65522 32.3754 9.63312C29.1451 11.611 28.1492 15.8018 30.1511 18.9934Z" fill="white"/>
<path fill-rule="evenodd" clip-rule="evenodd" d="M28.2014 20.1872C30.8706 24.4428 36.5259 25.7547 40.833 23.1175C45.1401 20.4803 46.4679 14.8926 43.7988 10.6371C41.1296 6.38156 35.4743 5.06963 31.1672 7.70683C26.8601 10.344 25.5323 15.9317 28.2014 20.1872ZM30.1511 18.9934C32.1529 22.1851 36.3944 23.169 39.6248 21.1911C42.8551 19.2132 43.851 15.0225 41.8491 11.8308C39.8472 8.63917 35.6057 7.65522 32.3754 9.63312C29.1451 11.611 28.1492 15.8018 30.1511 18.9934Z" fill="white"/>
<path fill-rule="evenodd" clip-rule="evenodd" d="M28.2014 20.1872C30.8706 24.4428 36.5259 25.7547 40.833 23.1175C45.1401 20.4803 46.4679 14.8926 43.7988 10.6371C41.1296 6.38156 35.4743 5.06963 31.1672 7.70683C26.8601 10.344 25.5323 15.9317 28.2014 20.1872ZM30.1511 18.9934C32.1529 22.1851 36.3944 23.169 39.6248 21.1911C42.8551 19.2132 43.851 15.0225 41.8491 11.8308C39.8472 8.63917 35.6057 7.65522 32.3754 9.63312C29.1451 11.611 28.1492 15.8018 30.1511 18.9934Z" fill="white"/>
<rect width="2.84236" height="10.2875" rx="1" transform="matrix(0.531348 0.847154 -0.852834 0.522182 28.4211 18.3864)" fill="white"/>
</svg>
