<svg width="59" height="60" viewBox="0 0 59 60" fill="none"
  xmlns="http://www.w3.org/2000/svg">
  <path d="M0.00944519 5.94636H9.8416V6.63461C9.8416 9.23685 9.8416 11.8364 9.8416 14.4331C9.8416 15.4393 10.1464 15.7441 11.1689 15.7441C12.2947 15.7441 13.4221 15.7441 14.5479 15.7441C15.3673 15.7441 15.6786 15.4442 15.7458 14.6101C15.872 13.0075 17.0928 11.8243 18.6955 11.8243C20.6619 11.8047 22.6283 11.8047 24.5947 11.8243C26.1925 11.8407 27.4067 13.0206 27.5346 14.6298C27.6001 15.4491 27.9082 15.7457 28.7439 15.7507C29.9118 15.7572 31.0796 15.7572 32.2474 15.7507C33.0963 15.7507 33.4339 15.4049 33.4355 14.5511C33.4355 11.7064 33.4355 8.85995 33.4355 5.96766H42.9055L42.4762 6.17414C40.5081 7.09672 39.4167 8.62726 39.3381 10.828C39.3102 11.667 39.3577 12.5093 39.3266 13.3467C39.2971 14.2693 39.5183 15.0886 40.182 15.8195C39.8297 16.0604 39.5019 16.2767 39.1742 16.5176C35.5248 19.2542 33.5207 22.8527 33.4699 27.464C33.4552 28.8323 33.4699 30.2023 33.4699 31.5263H24.621C24.6128 30.5857 24.3653 29.7074 25.2764 29.0404C25.7992 28.657 26.2236 28.1375 26.6742 27.6623C27.8295 26.4448 27.8344 24.652 26.6972 23.5148C25.5075 22.3267 23.7475 22.3087 22.5152 23.5C21.532 24.4521 20.5701 25.4353 19.6017 26.4071C19.3058 26.693 19.0722 27.0369 18.9154 27.4173C18.7586 27.7977 18.6821 28.2063 18.6905 28.6177C18.6905 29.5386 18.6905 30.4596 18.6905 31.4772H18.0351C15.6393 31.4772 13.2419 31.4772 10.8461 31.4772C9.13041 31.4903 7.90466 32.7046 7.87517 34.4252C7.85878 35.6542 7.89155 36.8832 7.86534 38.1123C7.83748 39.4232 8.45363 40.2999 9.6089 40.8095C9.97269 40.9734 10.1185 41.1373 10.1579 41.5502C10.6921 47.0923 11.2525 52.6311 11.808 58.1715C11.8342 58.4337 11.8883 58.6926 11.9375 59.0121H11.3164C8.61258 59.0121 5.90928 59.0121 3.20653 59.0121C1.28271 59.0056 0.00944519 57.7405 0.00944519 55.8101C0.00944519 39.3839 0.00944519 22.9576 0.00944519 6.53137V5.94636Z" fill="#416F6F"/>
  <path d="M35.4359 44.216V28.56H58.9561V44.216H35.4359ZM41.3041 38.6068C41.3041 37.7481 41.3139 36.8894 41.3041 36.0324C41.2943 35.3458 40.9272 34.9296 40.3455 34.9164C39.7342 34.9017 39.3459 35.3228 39.3426 36.0455C39.336 37.7618 39.336 39.4786 39.3426 41.1959C39.3426 41.9006 39.6933 42.2856 40.2979 42.2971C40.9321 42.3102 41.2959 41.9186 41.3041 41.1828C41.3123 40.3241 41.3041 39.4655 41.3041 38.6068ZM39.3377 31.9488C39.3377 32.1323 39.3278 32.3175 39.3377 32.4994C39.377 33.0942 39.7506 33.4515 40.3209 33.4498C40.8911 33.4482 41.2549 33.0959 41.3041 32.4928C41.3172 32.3109 41.3041 32.1258 41.3041 31.9422C41.3041 30.9328 41.0009 30.4871 40.3209 30.4887C39.6408 30.4903 39.3377 30.9311 39.3377 31.9488Z" fill="#416F6F"/>
  <path d="M12.1356 41.3388H31.1707C31.0167 42.9464 30.8708 44.5294 30.7119 46.1107C30.3186 50.0195 29.9226 53.9278 29.5238 57.8356C29.4337 58.7286 29.1322 59.0072 28.2243 59.0072H15.0853C14.143 59.0072 13.8579 58.7418 13.7645 57.793C13.2281 52.4399 12.6928 47.0868 12.1586 41.7338C12.1356 41.6109 12.1356 41.4912 12.1356 41.3388Z" fill="#416F6F"/>
  <path d="M51.1503 57.6946C48.8119 59.5922 45.5001 59.5922 43.4141 57.8142C42.5767 58.2059 41.8262 58.7597 41.0101 58.8843C40.0037 59.0334 38.9776 58.9777 37.9933 58.7204C36.4807 58.3156 35.4369 56.8097 35.4189 55.2529C35.3877 52.3246 35.409 49.3962 35.409 46.4679C35.4168 46.399 35.4311 46.3309 35.4516 46.2647H58.9997V46.8251C58.9997 49.5077 58.9997 52.1902 58.9997 54.8728C58.9997 57.3226 57.3233 58.9908 54.8718 59.0105C53.0102 59.0236 52.4301 58.8204 51.1503 57.6946Z" fill="#416F6F"/>
  <path d="M58.8667 26.5298H35.4662C35.535 26.0382 35.5645 25.5465 35.671 25.0894C36.5116 21.4416 38.5895 18.7427 41.916 17.0204C42.1715 16.8976 42.4519 16.8354 42.7354 16.8385C45.7244 16.8265 48.7144 16.8265 51.7056 16.8385C51.9481 16.8279 52.1898 16.8734 52.4119 16.9713C56.1645 18.9279 58.357 21.9906 58.9076 26.2037C58.9134 26.285 58.9134 26.3665 58.9076 26.4478C58.9093 26.4691 58.8929 26.4855 58.8667 26.5298Z" fill="#416F6F"/>
  <path d="M21.5767 39.3415H11.2005C10.1485 39.3415 9.84202 39.0383 9.84038 37.9994C9.84038 36.8949 9.84038 35.7899 9.84038 34.6843C9.84038 33.7584 10.1681 33.4471 11.1038 33.4471C18.1032 33.4471 25.1026 33.4471 32.102 33.4471C33.136 33.4471 33.4375 33.7568 33.4392 34.8105C33.4392 35.8953 33.4392 36.9785 33.4392 38.0633C33.4392 39.017 33.1114 39.3398 32.1381 39.3398L21.5767 39.3415Z" fill="#416F6F"/>
  <path d="M47.1794 14.7609C45.6226 14.7609 44.0658 14.7609 42.5107 14.7609C41.6619 14.7609 41.3112 14.4135 41.3063 13.5761C41.3063 12.6551 41.2915 11.7342 41.3063 10.8133C41.3083 10.046 41.6112 9.31023 42.1499 8.76391C42.6885 8.21759 43.42 7.90434 44.1871 7.89147C46.1929 7.86088 48.1992 7.86088 50.206 7.89147C50.9736 7.90005 51.7071 8.20966 52.2486 8.75366C52.7902 9.29767 53.0965 10.0326 53.1016 10.8001C53.1213 11.7408 53.1131 12.683 53.1016 13.6253C53.0934 14.3889 52.7313 14.756 51.9693 14.7609C50.3732 14.7691 48.7754 14.7609 47.1794 14.7609Z" fill="#416F6F"/>
  <path d="M0.00801138 3.90279C0.00801138 2.91958 -0.0100142 1.95439 0.00801138 0.997392C0.00284442 0.867342 0.0248179 0.737641 0.0725324 0.616551C0.120247 0.49546 0.192657 0.385633 0.28515 0.294065C0.377643 0.202497 0.488192 0.131194 0.609756 0.0846993C0.73132 0.0382041 0.861235 0.0175352 0.991227 0.0240089C3.61313 0.00762202 6.22958 0.00762202 8.84056 0.0240089C8.96954 0.0171552 9.09853 0.0371232 9.21939 0.0826515C9.34026 0.12818 9.45037 0.198279 9.54276 0.288521C9.63516 0.378763 9.70784 0.487187 9.75621 0.606942C9.80458 0.726698 9.82759 0.855184 9.82378 0.984282C9.85 1.94128 9.82378 2.89991 9.82378 3.90279H0.00801138Z" fill="#416F6F"/>
  <path d="M43.2696 3.92787H33.4538C33.4538 2.89386 33.4161 1.87787 33.4702 0.866795C33.4981 0.340775 33.893 0.0245072 34.4338 0.0228685C37.0469 0.0163137 39.6645 0.01686 42.2864 0.0245072C42.4165 0.0170298 42.5467 0.036953 42.6686 0.0829871C42.7905 0.129021 42.9014 0.20014 42.9941 0.291742C43.0867 0.383343 43.1592 0.493384 43.2066 0.614744C43.2541 0.736104 43.2755 0.866077 43.2696 0.996252C43.2876 1.94997 43.2696 2.90861 43.2696 3.92787Z" fill="#416F6F"/>
  <path d="M34.9007 58.9857H31.3857C31.992 52.9662 32.5967 46.9577 33.1997 40.9601L33.4373 40.9797V54.2695C33.4373 56.4883 33.6307 57.1143 34.9007 58.9857Z" fill="#416F6F"/>
  <path d="M22.6198 31.4514H20.6796C20.6796 30.4059 20.655 29.3703 20.6976 28.3379C20.7075 28.1101 20.9287 27.8627 21.1073 27.6824C21.9774 26.7877 22.8623 25.9077 23.7489 25.0294C24.2864 24.4984 24.8959 24.4509 25.3073 24.8917C25.7186 25.3325 25.6629 25.888 25.1549 26.4059C24.5682 27.0056 23.9996 27.6267 23.3687 28.1773C22.8017 28.6689 22.5051 29.208 22.6133 29.9798C22.6772 30.4354 22.6198 30.9123 22.6198 31.4514Z" fill="#416F6F"/>
</svg>
