<svg width="41" height="43" viewBox="0 0 41 43" fill="none" xmlns="http://www.w3.org/2000/svg">
<path d="M0.00561523 5.12207H6.838V5.60034C6.838 7.40864 6.838 9.21505 6.838 11.0196C6.838 11.7187 7.0498 11.9305 7.76037 11.9305C8.54268 11.9305 9.32613 11.9305 10.1084 11.9305C10.6778 11.9305 10.8942 11.7222 10.9408 11.1425C11.0285 10.0289 11.8769 9.2067 12.9906 9.2067C14.357 9.19303 15.7235 9.19303 17.09 9.2067C18.2003 9.21809 19.0441 10.038 19.1329 11.1562C19.1784 11.7256 19.3925 11.9317 19.9733 11.9351C20.7848 11.9397 21.5963 11.9397 22.4079 11.9351C22.9977 11.9351 23.2323 11.6948 23.2334 11.1015C23.2334 9.12471 23.2334 7.14673 23.2334 5.13687H29.8142L29.5158 5.28035C28.1482 5.92146 27.3898 6.98503 27.3352 8.51435C27.3158 9.09738 27.3488 9.68269 27.3272 10.2646C27.3067 10.9057 27.4604 11.4751 27.9216 11.9829C27.6768 12.1503 27.449 12.3006 27.2213 12.468C24.6853 14.3697 23.2927 16.8704 23.2574 20.0747C23.2471 21.0256 23.2574 21.9776 23.2574 22.8977H17.1082C17.1025 22.244 16.9306 21.6337 17.5637 21.1702C17.927 20.9037 18.2219 20.5428 18.535 20.2125C19.3378 19.3665 19.3413 18.1207 18.551 17.3304C17.7243 16.5048 16.5013 16.4923 15.6449 17.3202C14.9617 17.9818 14.2933 18.665 13.6203 19.3403C13.4147 19.539 13.2524 19.7779 13.1434 20.0423C13.0345 20.3066 12.9813 20.5906 12.9871 20.8764C12.9871 21.5164 12.9871 22.1563 12.9871 22.8635H12.5317C10.8668 22.8635 9.20087 22.8635 7.53604 22.8635C6.34379 22.8726 5.49202 23.7164 5.47152 24.9121C5.46014 25.7661 5.48291 26.6202 5.46469 27.4742C5.44533 28.3852 5.8735 28.9944 6.6763 29.3486C6.9291 29.4624 7.03045 29.5763 7.05778 29.8633C7.429 33.7145 7.81845 37.5634 8.20448 41.4134C8.2227 41.5956 8.26028 41.7755 8.29444 41.9976H7.86286C5.98395 41.9976 4.10543 41.9976 2.22728 41.9976C0.890409 41.993 0.00561523 41.1139 0.00561523 39.7725C0.00561523 28.3579 0.00561523 16.9432 0.00561523 5.5286V5.12207Z" fill="#416F6F"/>
<path d="M24.6248 31.7154V20.8359H40.969V31.7154H24.6248ZM28.7026 27.8175C28.7026 27.2208 28.7094 26.6241 28.7026 26.0285C28.6957 25.5514 28.4406 25.2622 28.0364 25.2531C27.6116 25.2428 27.3418 25.5355 27.3395 26.0377C27.3349 27.2303 27.3349 28.4233 27.3395 29.6167C27.3395 30.1063 27.5832 30.3739 28.0034 30.3819C28.4441 30.391 28.6969 30.1189 28.7026 29.6076C28.7082 29.0109 28.7026 28.4142 28.7026 27.8175ZM27.3361 23.1908C27.3361 23.3184 27.3292 23.447 27.3361 23.5734C27.3634 23.9868 27.623 24.235 28.0193 24.2339C28.4156 24.2328 28.6684 23.9879 28.7026 23.5689C28.7117 23.4425 28.7026 23.3138 28.7026 23.1863C28.7026 22.4848 28.4919 22.1751 28.0193 22.1762C27.5467 22.1774 27.3361 22.4837 27.3361 23.1908Z" fill="#416F6F"/>
<path d="M8.43237 29.7163H21.6599C21.5528 30.8334 21.4515 31.9334 21.341 33.0323C21.0677 35.7485 20.7925 38.4644 20.5154 41.1799C20.4528 41.8005 20.2433 41.9941 19.6124 41.9941H10.4821C9.82732 41.9941 9.62918 41.8096 9.56427 41.1503C9.19153 37.4305 8.81954 33.7106 8.44832 29.9907C8.43237 29.9053 8.43237 29.8222 8.43237 29.7163Z" fill="#416F6F"/>
<path d="M35.5461 41.0818C33.9212 42.4005 31.6198 42.4005 30.1702 41.1649C29.5883 41.4371 29.0668 41.822 28.4997 41.9085C27.8003 42.0122 27.0873 41.9734 26.4033 41.7947C25.3522 41.5134 24.6268 40.4669 24.6143 39.3851C24.5927 37.3502 24.6075 35.3153 24.6075 33.2804C24.6129 33.2325 24.6228 33.1852 24.6371 33.1392H41.0007V33.5286C41.0007 35.3927 41.0007 37.2568 41.0007 39.1209C41.0007 40.8233 39.8357 41.9825 38.1322 41.9962C36.8386 42.0053 36.4355 41.8641 35.5461 41.0818Z" fill="#416F6F"/>
<path d="M40.9063 19.4253H24.6453C24.6931 19.0837 24.7136 18.742 24.7876 18.4243C25.3718 15.8895 26.8157 14.014 29.1273 12.8172C29.3049 12.7319 29.4997 12.6886 29.6967 12.6908C31.7737 12.6825 33.8515 12.6825 35.9301 12.6908C36.0986 12.6835 36.2665 12.715 36.4209 12.7831C39.0286 14.1427 40.5522 16.271 40.9348 19.1987C40.9388 19.2552 40.9388 19.3119 40.9348 19.3684C40.9359 19.3832 40.9246 19.3945 40.9063 19.4253Z" fill="#416F6F"/>
<path d="M14.9937 28.3284H7.78328C7.05222 28.3284 6.83927 28.1178 6.83813 27.3958C6.83813 26.6283 6.83813 25.8604 6.83813 25.0922C6.83813 24.4488 7.06588 24.2324 7.7161 24.2324C12.58 24.2324 17.4439 24.2324 22.3078 24.2324C23.0263 24.2324 23.2359 24.4476 23.237 25.1798C23.237 25.9337 23.237 26.6864 23.237 27.4402C23.237 28.103 23.0093 28.3273 22.3328 28.3273L14.9937 28.3284Z" fill="#416F6F"/>
<path d="M32.7852 11.247C31.7034 11.247 30.6216 11.247 29.541 11.247C28.9511 11.247 28.7074 11.0056 28.704 10.4237C28.704 9.78375 28.6938 9.14379 28.704 8.50382C28.7054 7.97068 28.9159 7.45936 29.2902 7.07972C29.6645 6.70008 30.1728 6.48241 30.7059 6.47346C32.0997 6.45221 33.4939 6.45221 34.8885 6.47346C35.4218 6.47942 35.9316 6.69457 36.3079 7.0726C36.6842 7.45063 36.8971 7.96131 36.9006 8.49471C36.9143 9.14834 36.9086 9.80311 36.9006 10.4579C36.8949 10.9885 36.6432 11.2436 36.1137 11.247C35.0046 11.2527 33.8944 11.247 32.7852 11.247Z" fill="#416F6F"/>
<path d="M0.00556713 3.70196C0.00556713 3.01872 -0.00695891 2.34801 0.00556713 1.68299C0.00197659 1.59262 0.017246 1.50249 0.0504029 1.41835C0.0835598 1.3342 0.133877 1.25788 0.198151 1.19425C0.262425 1.13062 0.339245 1.08107 0.423721 1.04876C0.508196 1.01645 0.598474 1.00209 0.688806 1.00659C2.51078 0.9952 4.32895 0.9952 6.14333 1.00659C6.23295 1.00182 6.32259 1.0157 6.40658 1.04734C6.49057 1.07898 6.56708 1.12769 6.63129 1.1904C6.6955 1.25311 6.746 1.32845 6.77961 1.41167C6.81322 1.49489 6.82921 1.58417 6.82657 1.67388C6.84478 2.3389 6.82657 3.00506 6.82657 3.70196H0.00556713Z" fill="#416F6F"/>
<path d="M30.0691 3.7187H23.2481C23.2481 3.00016 23.2219 2.29415 23.2595 1.59155C23.2789 1.22602 23.5533 1.00625 23.9291 1.00511C25.745 1.00055 27.5639 1.00093 29.3859 1.00625C29.4763 1.00105 29.5668 1.01489 29.6515 1.04688C29.7362 1.07887 29.8133 1.12829 29.8777 1.19195C29.9421 1.2556 29.9924 1.33207 30.0254 1.4164C30.0584 1.50074 30.0733 1.59105 30.0691 1.68151C30.0817 2.34425 30.0691 3.01041 30.0691 3.7187Z" fill="#416F6F"/>
<path d="M24.2517 41.9787H21.8091C22.2304 37.7957 22.6506 33.6204 23.0697 29.4526L23.2348 29.4663V38.7014C23.2348 40.2433 23.3691 40.6782 24.2517 41.9787Z" fill="#416F6F"/>
<path d="M15.7186 22.8456H14.3704C14.3704 22.1191 14.3533 21.3994 14.3829 20.682C14.3897 20.5238 14.5435 20.3518 14.6676 20.2265C15.2723 19.6048 15.8872 18.9933 16.5032 18.3829C16.8767 18.014 17.3003 17.981 17.5862 18.2873C17.872 18.5936 17.8333 18.9796 17.4803 19.3395C17.0726 19.7562 16.6775 20.1878 16.239 20.5704C15.845 20.9121 15.6389 21.2867 15.7141 21.823C15.7585 22.1396 15.7186 22.471 15.7186 22.8456Z" fill="#416F6F"/>
</svg>
